PathFileType	4	(X/Y/Z)	 s01c0403.trc
DataRate	CameraRate	NumFrames	NumMarkers	Units	OrigDataRate	OrigDataStartFrame	OrigNumFrames
200	200	4	47	mm	200	1501	2000
Frame#	Time	racr			lacr			c7			jug			rlel			rdr			llel			ldr			lic			ric			lasi			rasi			rpsi			lpsi			rgt			lgt			rth1			rth2			rth3			rth4			rlfc			rsh1			rsh2			rsh3			rsh4			rlmal			rmmal			rcal			rtoe			rmt5			lth1			lth2			lth4			lth3			llfc			lsh1			lsh2			lsh3			lsh4			llmal			lmmal			lcal			ltoe			lmt5			SBIKE			LBIKE			RBIKE			
		X1	Y1	Z1	X2	Y2	Z2	X3	Y3	Z3	X4	Y4	Z4	X5	Y5	Z5	X6	Y6	Z6	X7	Y7	Z7	X8	Y8	Z8	X9	Y9	Z9	X10	Y10	Z10	X11	Y11	Z11	X12	Y12	Z12	X13	Y13	Z13	X14	Y14	Z14	X15	Y15	Z15	X16	Y16	Z16	X17	Y17	Z17	X18	Y18	Z18	X19	Y19	Z19	X20	Y20	Z20	X21	Y21	Z21	X22	Y22	Z22	X23	Y23	Z23	X24	Y24	Z24	X25	Y25	Z25	X26	Y26	Z26	X27	Y27	Z27	X28	Y28	Z28	X29	Y29	Z29	X30	Y30	Z30	X31	Y31	Z31	X32	Y32	Z32	X33	Y33	Z33	X34	Y34	Z34	X35	Y35	Z35	X36	Y36	Z36	X37	Y37	Z37	X38	Y38	Z38	X39	Y39	Z39	X40	Y40	Z40	X41	Y41	Z41	X42	Y42	Z42	X43	Y43	Z43	X44	Y44	Z44	X45	Y45	Z45	X46	Y46	Z46	X47	Y47	Z47	
1501	7.5050	744.612590	1325.250025	-91.251910	733.458911	1297.023789	-472.022695	731.392037	1417.493210	-282.247571	720.367807	1252.996321	-274.797710	594.946742	1096.440873	40.990145	712.883169	895.891909	-31.457216	558.385493	1067.971777	-567.653765	692.961848	897.182986	-456.916222	347.003387	1223.034623	-419.434226	373.868060	1185.973798	-95.140103	378.837540	1176.823395	-423.843724	387.179258	1137.319078	-121.828064	234.880642	1241.411007	-175.818613	219.928077	1253.641608	-278.958561	290.873096	1070.442301	-67.539590	301.938077	1104.724360	-445.614767	318.856446	953.802641	-52.706037	342.037720	873.544901	-55.503250	360.525146	785.901762	-64.727421	395.490577	886.264658	-67.779390	351.183031	668.612532	-84.451265	283.798750	574.087625	-51.682490	251.453685	495.861261	-54.871618	210.571351	417.140373	-65.161864	298.959396	474.864383	-86.029832	155.945115	312.654708	-87.729150	202.003771	309.704315	-159.080945	116.432016	329.423746	-140.957989	273.652465	108.370789	-138.658748	184.036761	165.114462	-65.842627	387.553503	1019.202065	-455.884407	471.458585	991.141825	-461.381589	491.355444	1042.066284	-449.278912	547.416015	955.969334	-452.950882	654.811707	867.015839	-419.504150	535.225073	834.647812	-460.486477	470.235927	777.779908	-453.313715	404.378056	723.138994	-437.847802	509.443348	736.855991	-429.372723	301.039221	632.003991	-417.763689	327.904676	625.053156	-337.232359	236.939647	633.450466	-375.631830	433.746548	437.819914	-368.933303	344.277792	489.463113	-441.361115	-225.360825	892.904075	-254.257969	-13.293617	84.959838	-457.937421	-23.104114	81.061979	-57.874534	
1502	7.5100	744.564776	1324.635426	-94.164525	733.396705	1294.535158	-472.971665	731.544676	1416.625247	-283.679086	719.926144	1252.229919	-275.377317	594.841070	1096.619897	39.967605	712.859480	895.964206	-31.490471	556.563146	1066.867311	-568.806815	692.700524	897.430417	-456.640333	346.504133	1225.194403	-420.177669	373.217757	1188.892021	-95.281150	378.515175	1179.077087	-424.707529	386.896830	1139.804818	-122.018233	234.479495	1243.545372	-176.587872	219.818056	1255.645003	-279.790015	290.902317	1072.898077	-67.862995	301.366362	1106.831547	-445.505111	320.347071	955.528386	-53.318858	344.298351	875.529091	-56.536216	363.718636	788.169717	-65.758989	397.603527	888.919936	-68.439324	354.200724	671.218300	-85.184358	285.358227	577.799290	-52.403085	251.880702	500.044456	-55.507291	209.789514	421.890451	-65.706150	299.077490	478.186997	-86.555899	153.777631	318.381945	-87.557716	200.353616	314.731203	-159.210400	114.762173	336.565254	-141.635295	263.465807	109.539588	-138.789155	176.366748	170.083765	-66.293584	386.281755	1019.833628	-455.006542	469.897068	991.002007	-460.150530	489.498783	1042.369130	-450.356325	545.751839	955.751146	-452.517533	655.798846	867.500792	-417.194501	535.823603	833.269677	-459.038911	471.596286	775.076662	-453.199171	406.719986	719.608692	-438.127046	511.254040	734.798378	-428.825559	303.471335	625.805643	-418.237057	330.142372	620.150869	-337.535641	238.680566	625.066388	-376.509612	443.396306	437.461185	-369.117171	351.899960	484.935531	-441.815707	-225.334167	892.963552	-254.509842	-13.300311	84.918036	-458.004290	-23.106012	81.131596	-57.896373	
1503	7.5150	744.543437	1324.387188	-95.392301	733.288895	1291.937647	-473.856323	731.627454	1415.822553	-284.929185	719.385541	1251.224058	-275.770364	594.598892	1096.780601	39.081194	712.828660	896.055779	-31.510098	554.626310	1065.693297	-569.893875	692.053873	897.751668	-456.644536	346.149319	1227.507626	-421.066187	372.450678	1191.777011	-95.212705	378.288703	1181.075904	-425.180097	386.572400	1142.203396	-122.104403	234.080596	1245.671658	-177.462374	219.779445	1257.520656	-280.712152	290.917033	1075.361330	-68.127973	300.627386	1108.967658	-445.288900	321.963312	957.072291	-54.026845	346.929797	877.454795	-57.679125	367.553848	790.403699	-66.880878	400.429193	891.671292	-68.469849	358.150565	673.877647	-86.058268	287.676907	581.362163	-53.306164	252.957492	504.220377	-56.389673	209.540764	426.737345	-66.637012	299.746959	481.506912	-87.682452	151.494868	324.411389	-87.720084	198.216886	319.818720	-159.759370	112.849620	343.678139	-142.555669	253.387887	111.376317	-139.036311	168.975712	175.497413	-66.893399	384.826559	1020.033085	-454.017259	468.150325	990.294401	-458.877996	488.161193	1041.848485	-450.101400	544.252552	954.700609	-451.556477	656.048838	867.296475	-415.600063	535.697177	830.329750	-457.282724	472.147280	771.001059	-452.749358	407.967585	714.791809	-438.221668	512.096793	731.274748	-428.086616	305.461261	618.596955	-418.921577	331.711365	614.288774	-337.610387	240.071733	615.858632	-377.587458	452.564826	436.884016	-369.435262	358.798159	479.676731	-442.090063	-225.333656	892.997369	-254.776879	-13.281902	84.970704	-457.987994	-23.079006	81.203146	-57.915582	
1504	7.5200	744.504616	1324.023639	-96.551822	733.338994	1289.228575	-474.597542	731.485348	1415.038764	-285.942255	718.659879	1250.182902	-276.087746	594.576410	1097.037531	38.581524	712.756414	896.108478	-31.495318	552.806044	1064.432180	-571.083990	691.388277	898.063471	-456.662176	345.865214	1229.920110	-421.773425	371.406934	1194.874181	-95.017749	378.305272	1183.047012	-425.964388	386.169081	1144.517498	-122.143919	233.751645	1247.780159	-178.358715	219.804527	1259.421529	-281.688687	290.879345	1077.714058	-68.303827	300.022061	1111.016205	-445.122376	323.792185	958.543818	-54.811629	349.964731	879.266184	-58.827891	371.830882	792.601880	-68.189118	403.677448	894.360146	-68.883301	362.764306	676.447307	-87.251640	290.741464	584.908573	-54.322141	254.594677	508.373300	-57.494138	209.687269	431.709502	-67.644198	300.792773	484.996280	-89.065187	149.081245	330.801437	-88.200359	195.577939	325.058927	-160.645923	110.708121	351.012273	-143.327764	243.537333	114.147026	-139.084179	161.519371	181.610100	-67.480828	383.118830	1019.759079	-453.170123	466.248192	989.015199	-457.591984	487.028498	1040.365037	-449.227646	542.733572	952.870673	-450.074188	655.626544	866.530452	-414.717705	534.702780	826.059415	-455.516349	471.854315	765.606300	-452.107179	408.372538	708.427151	-438.263152	512.095787	726.298294	-427.076628	307.140602	610.639469	-419.470724	332.991106	607.352924	-337.645355	241.405094	605.513878	-378.585787	461.658660	435.546594	-370.135022	365.600635	473.476628	-442.535116	-225.309828	893.017059	-255.053980	-13.265982	84.953101	-458.056105	-23.088219	81.286818	-57.970922	
